:SAMPLES-PER-SECOND 30
:FULLY-SPECIFIED
:DEGREES
346
root  28.9676 37.6163 -11.9097 126.078 79.0261 129.399
RightUpLeg  -23.7879 -12.9409 -11.7954
RightLeg  2.45431 -10.8746 3.31612
RightFoot  6.19984 -0.631991 4.4273
RightToes  0.000482159 0.542163 -0.142577
Spine  22.8998 -3.09036 -0.959394
Spine1  13.3989 -3.66282 -0.0472865
HEad  -6.87299 -2.1062 -4.26667
LeftShoulder1  11.6015 -17.153 -49.0313
LeftArm  -0.293262 -16.5 -20.2667
LeftForeArm  19.3842 -22.739 -4.00899
LeftHand  -0.25398 0.0180481 5.50724
RightShoulder  6.01789 11.3392 34.5848
RightArm  2.00776 -5.14026 29.9362
RightForeArm  -8.95797 21.8108 5.4441
RightHand  -1.66631 3.6792 -21.4113
LeftUpLeg  11.3348 10.6064 -6.70193
LeftLeg  23.5777 3.31422 1.95884
LeftFoot  -24.7595 -0.164045 -2.59837
LeftToes  1.06248e-005 4.65854e-005 -8.185e-006
347
root  30.1476 37.2967 -11.7895 133.518 79.2191 136.096
RightUpLeg  -27.2659 -15.8151 -9.64314
RightLeg  9.01902 -8.32423 2.51081
RightFoot  12.6814 -0.336478 1.98157
RightToes  0.000482159 0.542163 -0.142577
Spine  24.9018 -4.05586 2.84321
Spine1  13.1283 -3.4514 -1.42117
HEad  -5.92147 -3.3418 -4.81237
LeftShoulder1  11.7405 -17.3267 -49.2054
LeftArm  -1.85304 -17.5749 -19.8459
LeftForeArm  21.0468 -24.524 -4.12147
LeftHand  -0.25398 0.0180481 5.50724
RightShoulder  6.01141 11.3978 34.3838
RightArm  -0.112271 -2.93158 29.322
RightForeArm  -8.43359 19.6052 5.81039
RightHand  -1.86959 4.56373 -21.905
LeftUpLeg  9.06986 9.56265 -4.93325
LeftLeg  30.276 3.16271 2.327
LeftFoot  -24.4364 -0.688228 -7.45303
LeftToes  1.06248e-005 4.65854e-005 -8.185e-006
348
root  31.1804 37.0458 -11.6243 141.551 80.0632 143.217
RightUpLeg  -31.5201 -21.0359 -4.57894
RightLeg  15.1439 -2.08698 1.42762
RightFoot  15.3537 0.211497 -0.473367
RightToes  0.000482159 0.542163 -0.142577
Spine  28.1564 -4.99511 6.3976
Spine1  12.3983 -3.13009 -2.43055
HEad  -6.29819 -3.97017 -5.19471
LeftShoulder1  11.7273 -17.4685 -48.8146
LeftArm  -4.28082 -18.7917 -19.6238
LeftForeArm  22.4984 -25.9681 -4.37181
LeftHand  -0.25398 0.0180481 5.50724
RightShoulder  6.06322 11.7397 33.8255
RightArm  -3.86661 0.680204 28.9805
RightForeArm  -6.21797 16.0414 6.62017
RightHand  -1.95267 5.01098 -21.9056
LeftUpLeg  3.61581 10.258 -2.27138
LeftLeg  41.2077 3.28828 3.54674
LeftFoot  -19.0355 -0.626826 -10.8098
LeftToes  1.06248e-005 4.65854e-005 -8.185e-006
349
root  31.9975 36.8544 -11.3917 151.612 81.0184 152.501
RightUpLeg  -34.8581 -23.788 0.294952
RightLeg  20.0064 1.62337 0.782073
RightFoot  13.8512 0.901155 -3.62782
RightToes  0.000482159 0.542163 -0.142577
Spine  32.5324 -5.61102 8.7269
Spine1  11.5228 -2.95362 -1.87383
HEad  -7.88849 -4.14154 -5.29006
LeftShoulder1  11.5284 -17.6344 -47.594
LeftArm  -6.58866 -20.3437 -19.9802
LeftForeArm  22.6557 -26.502 -4.48005
LeftHand  -0.25398 0.0180481 5.50724
RightShoulder  6.02836 12.208 32.4187
RightArm  -8.37091 5.70253 29.1783
RightForeArm  -2.64701 11.1354 7.39029
RightHand  -1.76403 4.47211 -20.8801
LeftUpLeg  -4.35258 11.8394 0.251431
LeftLeg  53.9213 4.39186 6.98766
LeftFoot  -8.83842 0.179071 -8.04412
LeftToes  1.06248e-005 4.65854e-005 -8.185e-006
350
root  32.6289 36.6708 -11.1269 162.965 81.3623 163.016
RightUpLeg  -37.0587 -24.398 3.33462
RightLeg  23.6625 1.8475 0.606158
RightFoot  11.4508 1.37637 -6.41032
RightToes  0.000482159 0.542163 -0.142577
Spine  36.8965 -6.00782 10.2066
Spine1  10.6489 -2.94777 -0.41824
HEad  -10.1261 -4.38186 -5.07972
LeftShoulder1  11.3147 -17.9659 -45.9467
LeftArm  -8.22407 -22.5195 -20.5235
LeftForeArm  21.8011 -25.8864 -4.38947
LeftHand  -0.25398 0.0180481 5.50724
RightShoulder  5.85831 12.5153 30.6029
RightArm  -11.0647 11.5322 29.5928
RightForeArm  -0.729068 6.2641 7.35518
RightHand  -1.49401 3.56777 -19.508
LeftUpLeg  -13.1437 13.3949 1.70363
LeftLeg  64.4803 4.51388 10.8201
LeftFoot  -0.982489 0.209217 -1.94987
LeftToes  1.06248e-005 4.65854e-005 -8.185e-006
351
root  33.2415 36.6725 -10.8659 169.274 80.9802 167.815
RightUpLeg  -38.9692 -25.0962 5.13677
RightLeg  25.5407 1.67362 0.637082
RightFoot  10.2521 1.52676 -7.61099
RightToes  0.000482159 0.542163 -0.142577
Spine  40.3607 -6.18906 10.8578
Spine1  10.1198 -3.00506 0.621197
HEad  -12.7935 -4.94105 -4.73892
LeftShoulder1  11.2659 -18.5377 -44.4974
LeftArm  -9.15536 -25.6975 -20.5334
LeftForeArm  20.8745 -24.338 -4.11144
LeftHand  -0.25398 0.0180481 5.50724
RightShoulder  5.63588 12.6031 28.9941
RightArm  -12.3902 17.6016 29.5801
RightForeArm  -0.696553 2.68304 6.89733
RightHand  -1.37462 3.19988 -18.7291
LeftUpLeg  -21.6187 14.8211 1.20028
LeftLeg  70.3763 3.7107 12.2561
LeftFoot  0.171743 -0.133052 1.39045
LeftToes  1.06248e-005 4.65854e-005 -8.185e-006
352
root  33.9127 36.9022 -10.6364 170.624 80.4491 166.988
RightUpLeg  -40.562 -25.4675 6.04581
RightLeg  25.8333 1.59436 0.605545
RightFoot  9.54584 1.47446 -7.62482
RightToes  0.000482159 0.542163 -0.142577
Spine  43.1289 -6.2076 10.8551
Spine1  10.0682 -2.96682 1.04047
HEad  -15.9528 -5.66145 -4.45046
LeftShoulder1  11.3106 -19.2792 -43.1408
LeftArm  -10.3187 -29.8028 -20.0684
LeftForeArm  20.9519 -22.1383 -3.88612
LeftHand  -0.25398 0.0180481 5.50724
RightShoulder  5.42644 12.6549 27.5475
RightArm  -14.3059 23.5099 28.8459
RightForeArm  -0.611494 0.677391 6.47014
RightHand  -1.36732 3.32002 -18.384
LeftUpLeg  -29.3477 16.0936 -0.888179
LeftLeg  71.2506 2.90145 10.4747
LeftFoot  -2.11612 -0.0777472 1.07001
LeftToes  1.06248e-005 4.65854e-005 -8.185e-006
353
root  34.564 37.1333 -10.439 171.146 80.3085 165.246
RightUpLeg  -41.903 -24.9404 6.64999
RightLeg  25.8031 1.23568 0.416172
RightFoot  8.45874 1.40158 -7.68252
RightToes  0.000482159 0.542163 -0.142577
Spine  45.983 -6.14466 10.8368
Spine1  10.1665 -2.66001 1.02554
HEad  -19.396 -6.42927 -4.04611
LeftShoulder1  11.1935 -20.1102 -41.0397
LeftArm  -13.2014 -34.2802 -19.84
LeftForeArm  22.7742 -19.2838 -4.15354
LeftHand  -0.25398 0.0180481 5.50724
RightShoulder  5.23069 12.7836 26.0256
RightArm  -16.2171 28.9102 27.5105
RightForeArm  -0.778777 0.0195189 6.20253
RightHand  -1.33819 3.37695 -17.8915
LeftUpLeg  -36.0374 17.2513 -3.58381
LeftLeg  68.2808 2.50697 7.73749
LeftFoot  -3.90948 0.0229687 0.0444803
LeftToes  1.06248e-005 4.65854e-005 -8.185e-006
354
root  35.1634 37.3121 -10.2664 171.211 80.424 163.032
RightUpLeg  -43.337 -24.2526 7.30759
RightLeg  25.7103 0.947321 0.263269
RightFoot  7.54233 1.39452 -8.05379
RightToes  0.000482159 0.542163 -0.142577
Spine  48.9574 -6.16864 10.861
Spine1  10.1211 -2.15563 0.324124
HEad  -22.8536 -7.20133 -3.26024
LeftShoulder1  10.7847 -20.9446 -37.8913
LeftArm  -17.5749 -38.8254 -19.9382
LeftForeArm  25.1338 -15.8143 -4.65552
LeftHand  -0.25398 0.0180481 5.50724
RightShoulder  5.03707 12.9634 24.4283
RightArm  -18.0363 33.7553 25.6497
RightForeArm  -1.40925 0.0663849 6.12728
RightHand  -1.28474 3.29918 -17.3467
LeftUpLeg  -41.5867 18.4546 -6.86935
LeftLeg  62.2979 2.97515 6.70431
LeftFoot  -5.08678 -0.030081 1.15867
LeftToes  1.06248e-005 4.65854e-005 -8.185e-006
355
root  35.726 37.4852 -10.1258 170.356 80.3991 159.304
RightUpLeg  -45.5628 -23.9595 8.10594
RightLeg  25.4146 1.00959 0.291575
RightFoot  7.10097 1.40004 -8.30188
RightToes  0.000482159 0.542163 -0.142577
Spine  51.381 -6.27817 10.5366
Spine1  10.2686 -1.75837 -0.584078
HEad  -26.5026 -7.72891 -2.39285
LeftShoulder1  10.2587 -21.5877 -34.7338
LeftArm  -22.2625 -43.5961 -19.278
LeftForeArm  26.282 -12.2504 -4.86875
LeftHand  -0.25398 0.0180481 5.50724
RightShoulder  4.81658 13.2539 22.4841
RightArm  -20.4795 38.4489 23.198
RightForeArm  -1.82642 0.163044 5.95133
RightHand  -1.26631 3.39211 -16.9351
LeftUpLeg  -46.2581 19.7746 -10.9419
LeftLeg  53.1982 3.76408 5.90116
LeftFoot  -6.76285 -0.0212289 1.38184
LeftToes  1.06248e-005 4.65854e-005 -8.185e-006
